<?xml version="1.0" encoding="iso-8859-1"?>
<!-- Generator: Adobe Illustrator 16.0.0, SVG Export Plug-In . SVG Version: 6.00 Build 0)  -->
<!DOCTYPE svg PUBLIC "-//W3C//DTD SVG 1.1//EN" "http://www.w3.org/Graphics/SVG/1.1/DTD/svg11.dtd">
<svg xmlns="http://www.w3.org/2000/svg" xmlns:xlink="http://www.w3.org/1999/xlink" version="1.1" id="Capa_1" x="0px" y="0px" width="512px" height="512px" viewBox="0 0 124.585 124.585" style="enable-background:new 0 0 124.585 124.585;" xml:space="preserve">
<g>
	<path d="M123.109,54.997L110.352,2.385C110.009,0.981,108.764,0,107.25,0l-0.07,0.001c-0.938,0.001-1.812,0.417-2.402,1.128   L64.148,19.084c-0.946-0.539-2.042-0.851-3.209-0.851c-3.102,0-5.692,2.17-6.347,5.074L17.656,39.632   c-0.057-0.003-0.103-0.027-0.19-0.004l-0.068,0.001c-2.721,0.307-3.011,2.295-3.011,2.295c-0.008,0.029-0.017,0.059-0.024,0.089   L1.605,94.626H0.969v1.067c0,7.109,7.371,12.894,16.431,12.894s16.431-5.782,16.431-12.894v-1.067h-0.506L21.345,45.92   l35.859-15.846v83.603h-10.58v10.908h29.433v-10.908H65.529V29.363c1.188-1.18,1.921-2.512,1.921-4.317l35.118-15.752   L91.391,54.997h-0.637v1.068c0,7.109,7.371,12.893,16.432,12.893c9.06,0,16.431-5.784,16.431-12.893v-1.068H123.109z    M26.895,94.626H8.034l9.43-38.889L26.895,94.626z M97.818,54.997l9.43-38.888l9.432,38.888H97.818z" fill="#FFFFFF"/>
</g>
<g>
</g>
<g>
</g>
<g>
</g>
<g>
</g>
<g>
</g>
<g>
</g>
<g>
</g>
<g>
</g>
<g>
</g>
<g>
</g>
<g>
</g>
<g>
</g>
<g>
</g>
<g>
</g>
<g>
</g>
</svg>
