
		<svg xmlns="http://www.w3.org/2000/svg" xmlns:xlink="http://www.w3.org/1999/xlink" version="1.1" width="3111.246734311284" height="940.3668491883844">
			
			<g transform="scale(5.562336715564199) translate(10, 10)">
				<defs id="SvgjsDefs2429"/><g id="SvgjsG2430" featureKey="root" fill="#000" transform="matrix(1,0,0,1,0,0)"/><g id="SvgjsG2431" featureKey="symbol1" fill="#000" transform="matrix(1.3123863369320026,0,0,1.3123863369320026,-0.1974286751888883,9.477471795939305)"><g xmlns="http://www.w3.org/2000/svg"><path fill-rule="evenodd" clip-rule="evenodd" d="M80.46,36.608c-5.384-7.431-16.674-14.218-28.8-8.64   c0.723-5.117,1.831-9.849,3.36-14.16c1.236-0.709,1.869-1.18,2.159-2.4c2.562,0.218,3.543-2.46,2.881-3.6   c-0.904-1.557-3.521-0.109-4.801,0.24c-0.209-0.493,1.222-0.479,0.48-0.72c-0.54-0.187-0.502,0.458-1.2,0.96   c-0.699,0.503-1.738,0.645-2.4,1.44c-1.138,1.367-0.78,3.91-1.439,4.32c0.562-1.233-0.834-0.353-0.48-0.24   c-1.608-0.513-0.508-1.036-1.2-2.4c-2.742-3.806-8.005-6.319-13.92-7.2c-0.72,0-1.44,0-2.16,0c-1.667,0.815-3.613,0.35-5.04,1.68   c0.143,1.443,0.833,1.972,0.72,3.12c-0.356-0.204-0.516-0.604-0.48-1.2c-0.647,10.052,10.414,17.115,20.16,16.08   c0.279,0.53-0.591,1.961-0.48,3.12c-9.838-4.27-19.879,0.02-25.92,5.52c-0.468,0.427-1.409,1.477-1.92,2.16   c-3.186,4.261-5.87,8.995-6.48,14.4c-1.649,1.197-0.693,5.126-1.92,7.44c0,2.32,0,4.641,0,6.96   c2.337,16.599,9.389,30.349,28.56,31.44c0.16,0,0.32,0,0.48,0c1.124-0.449,1.886-0.237,2.88-0.48   c2.258-0.551,4.794-2.619,6.48-2.64c1.302-0.016,3.052,1.288,4.32,1.68c19.411,6.006,32.302-12.486,33.36-29.52   C88.367,52.579,85.86,44.062,80.46,36.608z M41.58,18.849c1.122-0.362-0.709-1.072-0.72-0.24c0.304-0.952-2.058-0.829-2.64-2.16   c-0.279,0.201-0.644,0.316-1.2,0.24c-1.024-2.497-4.56-4.216-4.32-7.68c8.014-0.551,13.492,2.777,15.6,10.8   C45.094,20.695,43.463,19.027,41.58,18.849z M63.66,91.568c-6.092,0.682-9.838-1.58-13.44-4.08c-2.146,0.396-3.303,2.853-5.76,2.16   c0.479,1.187-4.905,1.317-6,1.68c0.066-0.494,0.894-0.226,0.96-0.72c-1.234-0.124-0.633-0.304-0.96,0.48   c-1.646-1.249-2.871-0.719-4.8-0.721c0.059-0.261,0.477-0.162,0.48-0.479c-1.397,0.072-2.418-1.179-4.08-0.72   c0.446-0.843-0.182-0.79-0.48-1.44c-3.537-1.794-4.922-4.282-7.68-6.72c0.676-1.206-2.234-2.632-2.64-4.32   c0.315,0.085,0.377,0.423,0.72,0.48c-2.314-5.132-4.4-12.132-4.08-19.2c0.542-11.97,7.173-22.579,15.6-27.12   c1.021,0.42,2.061-0.461,2.88-0.96c4.13,0.045,6.752-0.763,10.32,0.48c1.932,0.673,3.875,2.902,5.28,2.88   c1.347-0.021,3.369-2.198,5.28-2.88c6.406-2.287,12.013-0.842,17.28,2.4c6.78,5.545,10.824,13.48,12,25.2   C86.111,73.622,76.435,90.14,63.66,91.568z"/><path fill-rule="evenodd" clip-rule="evenodd" d="M57.66,33.249c0.073,0.633-0.501,0.619-0.96,0.72c0.312,1.239-0.275,1.413,0,1.92   c0.9,0.162,1.072,1.109,1.68,1.68c0.947-0.33,1.963-0.364,3.601,0c3.957,0.88,7.739,5.554,9.359,5.28   c1.291-0.218,2.347-1.566,1.44-3.6C68.47,36.519,65.078,32.87,57.66,33.249z"/></g></g><g id="SvgjsG2432" featureKey="text1" fill="#000" transform="matrix(3.1347960258191607,0,0,3.1347960258191607,127.74294677172297,15.909096707053493)"><path d="M4.48 20.28 q0.54 1.56 2.18 1.56 q0.82 0 1.33 -0.41 t0.8 -1.04 t0.39 -1.41 t0.1 -1.54 q0 -0.7 -0.05 -1.56 t-0.29 -1.61 t-0.76 -1.26 t-1.52 -0.51 q-0.96 0 -1.47 0.49 t-0.76 1.21 t-0.31 1.53 t-0.06 1.43 q0 0.92 0.09 1.64 t0.33 1.48 z M2.86 23.04 q-2.14 -1.78 -2.14 -5.86 q0 -1.76 0.41 -3.09 t1.18 -2.23 t1.87 -1.36 t2.48 -0.46 t2.49 0.46 t1.88 1.37 t1.18 2.24 t0.41 3.07 t-0.41 3.07 t-1.18 2.23 t-1.88 1.36 t-2.49 0.46 q-2.28 0 -3.8 -1.26 z M13.94 15.46 q0.1 -0.4 0.38 -0.89 t0.56 -0.71 q1.84 0.14 2.56 1.82 q0.76 -1.8 2.5 -1.8 q0.52 0 1.32 0.16 q0 0.62 -0.21 1.47 t-0.57 1.45 q-0.34 -0.12 -1.02 -0.2 q-1 0 -1.64 1.02 l0 6.22 q-0.66 0.12 -1.55 0.12 t-1.57 -0.12 l0 -6.46 q0 -1.5 -0.76 -2.08 z M25.92 13.82 q0.96 0 1.86 0.44 l0 -4.84 l0.12 -0.14 l1.22 0 q0.96 0 1.33 0.42 t0.37 1.46 l0 9.96 q0 1.06 0.56 1.44 q-0.1 0.42 -0.38 0.9 t-0.58 0.7 q-1.46 -0.04 -2.14 -1.12 q-1.2 1.26 -2.88 1.26 t-2.58 -1.4 t-0.9 -3.84 q0 -1.2 0.31 -2.17 t0.85 -1.65 t1.27 -1.05 t1.57 -0.37 z M26.32 21.78 q0.82 0 1.46 -0.78 l0 -4.38 q-0.82 -0.48 -1.3 -0.48 q-1.36 0 -1.36 3 q0 2.64 1.2 2.64 z M41.040000000000006 20.02 l-5.22 0 q0.04 0.9 0.46 1.4 t1.38 0.5 q0.48 0 1.11 -0.14 t1.45 -0.46 q0.66 0.68 0.82 1.84 q-1.6 1.14 -3.92 1.14 q-1.26 0 -2.11 -0.4 t-1.38 -1.12 t-0.75 -1.7 t-0.22 -2.14 q0 -1.12 0.27 -2.07 t0.82 -1.65 t1.4 -1.1 t1.99 -0.4 q0.96 0 1.73 0.32 t1.31 0.88 t0.83 1.34 t0.29 1.7 q0 1.22 -0.26 2.06 z M35.800000000000004 17.86 l2.64 0 l0 -0.22 q0 -0.74 -0.33 -1.22 t-0.99 -0.48 q-0.64 0 -0.95 0.45 t-0.37 1.47 z M42.6 15.46 q0.1 -0.4 0.38 -0.89 t0.56 -0.71 q1.84 0.14 2.56 1.82 q0.76 -1.8 2.5 -1.8 q0.52 0 1.32 0.16 q0 0.62 -0.21 1.47 t-0.57 1.45 q-0.34 -0.12 -1.02 -0.2 q-1 0 -1.64 1.02 l0 6.22 q-0.66 0.12 -1.55 0.12 t-1.57 -0.12 l0 -6.46 q0 -1.5 -0.76 -2.08 z M58.92 20.02 l-5.22 0 q0.04 0.9 0.46 1.4 t1.38 0.5 q0.48 0 1.11 -0.14 t1.45 -0.46 q0.66 0.68 0.82 1.84 q-1.6 1.14 -3.92 1.14 q-1.26 0 -2.11 -0.4 t-1.38 -1.12 t-0.75 -1.7 t-0.22 -2.14 q0 -1.12 0.27 -2.07 t0.82 -1.65 t1.4 -1.1 t1.99 -0.4 q0.96 0 1.73 0.32 t1.31 0.88 t0.83 1.34 t0.29 1.7 q0 1.22 -0.26 2.06 z M53.68 17.86 l2.64 0 l0 -0.22 q0 -0.74 -0.33 -1.22 t-0.99 -0.48 q-0.64 0 -0.95 0.45 t-0.37 1.47 z M64.52 13.82 q0.96 0 1.86 0.44 l0 -4.84 l0.12 -0.14 l1.22 0 q0.96 0 1.33 0.42 t0.37 1.46 l0 9.96 q0 1.06 0.56 1.44 q-0.1 0.42 -0.38 0.9 t-0.58 0.7 q-1.46 -0.04 -2.14 -1.12 q-1.2 1.26 -2.88 1.26 t-2.58 -1.4 t-0.9 -3.84 q0 -1.2 0.31 -2.17 t0.85 -1.65 t1.27 -1.05 t1.57 -0.37 z M64.92 21.78 q0.82 0 1.46 -0.78 l0 -4.38 q-0.82 -0.48 -1.3 -0.48 q-1.36 0 -1.36 3 q0 2.64 1.2 2.64 z  M79.72 19.96 l-0.02 1.44 l0 0.02 q0.92 -0.04 1.48 -0.04 l4.64 0 q0 0.74 -0.06 1.14 q-0.24 1.54 -2.04 1.54 l-5.32 0 q-0.86 0 -1.35 -0.5 t-0.49 -1.36 l0 -11.72 l0.14 -0.14 l8.62 0 q0.12 0.58 0.12 1.26 t-0.28 1.42 l-5.46 0 l0.02 1.44 l0 1.4 q0.52 -0.02 1.36 -0.02 l3.06 0 q0.18 0.56 0.18 1.28 t-0.18 1.32 l-4.42 0 l0 1.52 z M96.20000000000002 22.56 q-0.1 0.42 -0.38 0.9 t-0.58 0.7 q-1.4 -0.04 -2.16 -1.06 q-1.3 1.2 -2.82 1.2 q-0.78 0 -1.36 -0.25 t-0.98 -0.67 t-0.6 -0.97 t-0.2 -1.15 q0 -0.86 0.31 -1.51 t0.85 -1.08 t1.26 -0.65 t1.54 -0.22 q0.46 0 0.81 0.01 t0.61 0.03 l0 -0.38 q0 -1.26 -1.3 -1.26 q-0.84 0 -2.94 0.64 q-0.6 -0.7 -0.76 -2.18 q0.48 -0.18 1.07 -0.34 t1.21 -0.28 t1.22 -0.19 t1.08 -0.07 q0.7 0 1.35 0.2 t1.14 0.61 t0.78 1.06 t0.29 1.55 l0 4.06 q0 0.92 0.56 1.3 z M90.16000000000001 21.06 q0 0.94 1.08 0.94 q0.56 0 1.26 -0.58 l0 -1.6 q-0.4 -0.02 -0.67 -0.03 t-0.41 -0.01 q-1.26 0 -1.26 1.28 z M103.82000000000002 14 q0.12 0.56 0.12 1.12 t-0.12 1.1 l-2.38 -0.04 l0 4.6 q0 0.94 0.88 0.94 l1.12 0 q0.26 0.72 0.26 1.32 t-0.08 0.86 q-1.48 0.2 -2.72 0.2 q-2.52 0 -2.52 -2.78 l0 -5.12 l-1.56 0.02 q-0.14 -0.5 -0.14 -1.09 t0.14 -1.13 l1.56 0.04 l0 -1.16 q0 -1.02 0.39 -1.45 t1.31 -0.43 l1.22 0 l0.14 0.14 l0 2.9 z M109.08000000000001 16.32 l0 7.68 q-0.34 0.06 -0.74 0.09 t-0.82 0.03 t-0.83 -0.03 t-0.75 -0.09 l0 -6.62 q0 -1.16 -0.94 -1.16 l-0.3 0 q-0.12 -0.38 -0.12 -1.06 q0 -0.66 0.12 -1.12 q0.52 -0.04 0.96 -0.07 t0.8 -0.03 l0.44 0 q1.02 0 1.6 0.64 t0.58 1.74 z M105.58000000000001 10 q0.58 -0.32 1.5 -0.32 q0.94 0 1.46 0.32 q0.24 0.54 0.24 1.16 t-0.24 1.16 q-0.58 0.3 -1.52 0.3 t-1.44 -0.3 q-0.24 -0.54 -0.24 -1.16 t0.24 -1.16 z M120.04 17.4 l0 4.1 q0 1.32 0.48 1.98 q-0.76 0.68 -1.82 0.68 q-1.04 0 -1.42 -0.48 t-0.38 -1.46 l0 -4.26 q0 -0.68 -0.18 -1 t-0.7 -0.32 q-0.3 0 -0.68 0.16 t-0.78 0.52 l0 6.68 q-0.34 0.06 -0.74 0.09 t-0.82 0.03 t-0.82 -0.03 t-0.74 -0.09 l0 -9.98 l0.14 -0.14 l1.18 0 q1.22 0 1.64 1.2 q1.4 -1.24 2.78 -1.24 q1.4 0 2.13 0.97 t0.73 2.59 z M128.46 14.66 q0.68 -0.76 1.88 -0.8 q0.32 0.24 0.61 0.72 t0.35 0.88 q-0.56 0.38 -0.56 1.44 l0 5.28 q0 1.84 -0.29 3.05 t-0.88 1.92 t-1.49 0.99 t-2.12 0.28 q-2.06 0 -3.76 -0.66 q0 -0.56 0.22 -1.22 t0.54 -1.04 q1.34 0.6 2.72 0.6 q2.02 0 2.02 -2.02 l0 -0.66 q-1.08 0.78 -2.28 0.78 q-1.78 0 -2.69 -1.41 t-0.91 -3.83 q0 -1.22 0.31 -2.19 t0.85 -1.65 t1.25 -1.04 t1.51 -0.36 q1.62 0 2.72 0.94 z M127.7 21 l0 -4.28 q-0.7 -0.68 -1.32 -0.68 q-1.36 0 -1.36 3 q0 2.64 1.18 2.64 q0.82 0 1.5 -0.68 z"/></g>
			</g>
		</svg>
	